# xmcd
#
# Track frame offsets:
#	150
#	21857
#	41662
#	62778
#	81169
#	98749
#	119629
#	139563
#	165823
#	197572
#
# Disc length: 2884 seconds
#
# Revision: 1
# Processed by: cddbd v1.5.1PL2 Copyright (c) Steve Scherf et al.
# Submitted via: audiograbber 1.81.02
#
DISCID=7c0b420a
DTITLE=Darrell McFadden and The Disciples - I 've Got A Right
DYEAR=2006
DGENRE=Gospel
TTITLE0=Be Ready
TTITLE1=Calling Me
TTITLE2=Thank You
TTITLE3=I Believe
TTITLE4=I 've Got A Right
TTITLE5=Hold On
TTITLE6=Who 'll Be A Witness
TTITLE7=Spirit Now
TTITLE8=Shackles
TTITLE9=O How I Love Jesus - Further Along
EXTD=
EXTT0=
EXTT1=
EXTT2=
EXTT3=
EXTT4=
EXTT5=
EXTT6=
EXTT7=
EXTT8=
EXTT9=
PLAYORDER=
